<?xml version="1.0" encoding="UTF-8" standalone="no"?>
<!DOCTYPE svg PUBLIC "-//W3C//DTD SVG 1.1//EN" "http://www.w3.org/Graphics/SVG/1.1/DTD/svg11.dtd">
<svg width="100%" height="100%" viewBox="0 0 822 372" version="1.1" xmlns="http://www.w3.org/2000/svg" xmlns:xlink="http://www.w3.org/1999/xlink" xml:space="preserve" xmlns:serif="http://www.serif.com/" style="fill-rule:evenodd;clip-rule:evenodd;stroke-linejoin:round;stroke-miterlimit:2;">
    <g transform="matrix(1,0,0,1,-1132.39,-64.1357)">
        <g transform="matrix(1,0,0,1,1042.99,0)">
            <g transform="matrix(1,0,0,1,-2.27374e-13,26.9074)">
                <g>
                    <g transform="matrix(5.29154e-17,0.864175,-1.22123,7.4779e-17,562.148,-897.651)">
                        <path d="M1317.08,384.26C1312.21,384.634 1307.5,384.835 1302.99,384.835C1249.65,384.835 1170.21,357.478 1142.99,348.349C1139.86,347.3 1135.21,345.966 1133.61,343.964C1132.02,341.978 1131.55,338.731 1133.37,336.335L1149.12,315.639L1317.08,384.26ZM1192.85,-79.716C1207.73,-85.671 1223.74,-90.388 1240.57,-93.671L1222.24,-117.767L1492.05,-7.537C1502.54,9.976 1508.47,29.187 1508.75,49.346L1192.85,-79.716ZM1165.58,294.001L1195.48,254.714L1441.79,355.343C1421.74,361.817 1394.48,370.121 1366.94,376.267L1165.58,294.001ZM1211.94,233.075L1234.67,203.202L1432.93,284.199L1472.6,336.335C1473.46,337.458 1473.81,338.767 1473.78,340.046L1211.94,233.075ZM1112.73,125.015C1097.64,106.304 1088.09,85.076 1085.65,62.451L1388.38,186.133C1380.41,188.84 1372.17,191.205 1363.68,193.2L1401.61,243.037L1112.73,125.015ZM1086.3,34.353C1088.64,19.296 1094.14,4.908 1102.31,-8.474L1466.79,140.435C1454.25,152.326 1439.28,162.858 1422.39,171.661L1086.3,34.353ZM1118.66,-30.158C1130.36,-43 1144.75,-54.5 1161.26,-64.255L1505.69,76.46C1501.97,91.754 1494.97,106.259 1485.22,119.599L1118.66,-30.158ZM1158.94,-251.859C1177.91,-258.062 1204.95,-266.519 1232.81,-273.064L1438.09,-189.198L1408.26,-150L1158.94,-251.859ZM1281,-281.741C1288.68,-282.584 1296.07,-283.056 1302.99,-283.056C1356.32,-283.056 1435.76,-255.699 1462.99,-246.57C1466.11,-245.521 1470.76,-244.187 1472.36,-242.185C1473.95,-240.199 1474.43,-236.952 1472.6,-234.556L1454.55,-210.837L1281,-281.741ZM1190.91,-158.929L1134.05,-233.665L1391.8,-128.362L1363.68,-91.421C1396.3,-83.75 1425.4,-70.618 1448.83,-53.56L1190.91,-158.929Z" style="fill:rgb(249,108,180);"/>
                    </g>
                    <g transform="matrix(0.519615,0.3,-0.652675,1.13047,-445.946,-461.78)">
                        <path d="M1412.99,284.406C1393.98,276.401 1376.35,267.949 1362.99,259.556L1362.99,131.158L1412.99,130.476L1412.99,284.406ZM1503.77,317.528L1503.77,129.239L1553.77,128.557L1553.77,328.712C1551.18,329.369 1548.31,329.726 1545.84,329.736C1541.16,329.756 1535.47,327.733 1531.38,326.423C1524.34,324.17 1514.83,321.149 1503.77,317.528ZM1900.59,231.334L1900.59,-47.292C1917.27,-48.183 1933.99,-48.432 1950.59,-48.059L1950.59,232.154C1933.85,232.512 1917.12,232.231 1900.59,231.334ZM1622.79,279.171L1622.79,127.616L1640.71,127.372C1620.15,91.095 1632.52,52.806 1672.79,21.125L1672.79,241.958L1622.79,279.171ZM1763.57,207.757L1763.57,-23.668C1770,-25.689 1776.65,-27.613 1783.51,-29.432C1793.36,-32.046 1803.39,-34.379 1813.57,-36.436L1813.57,220.485C1796.16,216.986 1779.41,212.732 1763.57,207.757ZM2041.37,223.709L2041.37,-39.585C2058.66,-36.669 2075.41,-33.034 2091.37,-28.708L2091.37,212.783C2090.47,213.027 2089.57,213.27 2088.66,213.511C2073.3,217.588 2057.48,220.981 2041.37,223.709ZM2320.39,62.598L2320.39,-134.436L2321.47,-135.242C2324.38,-137.408 2330.45,-138.654 2335.09,-138.673C2339.78,-138.693 2345.47,-136.67 2349.56,-135.36C2355.11,-133.582 2362.21,-131.326 2370.39,-128.674L2370.39,61.916L2320.39,62.598ZM2179.61,176.597L2179.61,-29.658L2229.61,-66.871L2229.61,130.289C2219.38,146.882 2202.53,162.623 2179.61,176.597ZM2460.96,60.682L2460.96,-96.241C2479.41,-88.702 2496.92,-80.698 2510.96,-72.671L2510.96,60L2460.96,60.682Z" style="fill:white;"/>
                    </g>
                </g>
                <g transform="matrix(5.29154e-17,0.864175,-1.22123,7.4779e-17,562.148,-897.651)">
                    <path d="M1317.42,386.516C1312.44,386.899 1307.61,387.105 1302.99,387.105C1249.21,387.105 1169.06,359.605 1141.61,350.4C1139.62,349.732 1137.06,348.945 1134.95,347.971C1133.16,347.144 1131.68,346.166 1130.82,345.083C1128.77,342.525 1128.2,338.344 1130.54,335.259L1231.85,202.126C1231.85,202.126 1235.86,196.857 1235.86,196.857C1182.15,185.613 1137.17,159.915 1109.94,126.14C1094.63,107.144 1084.93,85.593 1082.45,62.624C1082.03,58.751 1081.82,54.838 1081.82,50.889C1081.82,45.217 1082.26,39.617 1083.11,34.105C1085.49,18.819 1091.07,4.211 1099.36,-9.374C1104.06,-17.06 1109.62,-24.418 1115.97,-31.387C1127.84,-44.423 1142.44,-56.096 1159.21,-65.998C1169.17,-71.883 1179.9,-77.143 1191.27,-81.692C1205.24,-87.28 1220.18,-91.795 1235.86,-95.078L1130.54,-233.48C1128.2,-236.564 1128.77,-240.743 1130.81,-243.302C1131.68,-244.385 1133.15,-245.363 1134.93,-246.191C1137.03,-247.17 1139.6,-247.961 1141.6,-248.625C1145.86,-250.037 1151.28,-251.853 1157.6,-253.919C1176.65,-260.15 1203.81,-268.644 1231.8,-275.218C1248.24,-279.08 1264.97,-282.279 1280.51,-283.984C1288.36,-284.845 1295.91,-285.326 1302.99,-285.326C1356.76,-285.326 1436.91,-257.826 1464.36,-248.621C1466.35,-247.953 1468.92,-247.166 1471.02,-246.192C1472.81,-245.365 1474.29,-244.387 1475.15,-243.304C1477.2,-240.747 1477.78,-236.565 1475.43,-233.48L1394.62,-127.286C1394.62,-127.286 1368.3,-92.701 1368.3,-92.701C1399.95,-84.811 1428.22,-71.827 1451.13,-55.141C1469.56,-41.721 1484.52,-25.906 1495,-8.423C1505.65,9.355 1511.67,28.858 1511.96,49.323C1511.97,49.845 1511.97,50.367 1511.97,50.889C1511.97,59.737 1510.9,68.409 1508.85,76.845C1505.07,92.372 1497.97,107.098 1488.07,120.641C1482.64,128.068 1476.38,135.14 1469.36,141.792C1456.63,153.862 1441.43,164.553 1424.29,173.488C1413.51,179.112 1401.96,184.04 1389.77,188.179C1382.81,190.542 1375.65,192.648 1368.3,194.48L1475.43,335.259C1476.54,336.721 1477.03,338.421 1476.98,340.087C1476.93,341.937 1476.23,343.733 1475.16,345.081C1474.29,346.163 1472.83,347.142 1471.04,347.97C1468.94,348.949 1466.37,349.74 1464.37,350.404C1458.97,352.194 1451.71,354.633 1443.12,357.407C1422.98,363.914 1395.58,372.256 1367.91,378.431C1350.63,382.289 1333.24,385.3 1317.42,386.516ZM1309.53,202.799L1393.43,237.074L1362.11,195.922C1345.38,199.692 1327.76,202.05 1309.53,202.799ZM1381.02,185.746C1331.7,165.595 1137.94,86.436 1089.4,66.605C1092.46,87.054 1101.44,106.262 1115.09,123.358L1115.09,123.358L1298.46,198.277C1327.82,198.124 1355.74,193.663 1381.02,185.746ZM1362.11,-94.143L1387.49,-127.498L1142.23,-227.702L1193.31,-160.573C1219.3,-149.953 1298.25,-117.699 1349.83,-96.626C1353.97,-95.883 1358.07,-95.054 1362.11,-94.143ZM1199.77,-79.509C1251.4,-58.416 1454.54,24.575 1505.41,45.361C1504.47,27.235 1498.9,9.939 1489.51,-5.953L1270.7,-95.346C1245.37,-93.093 1221.44,-87.613 1199.77,-79.509ZM1261.28,-99.197L1230.42,-111.804L1242.21,-96.307C1248.46,-97.468 1254.82,-98.435 1261.28,-99.197ZM1280.38,-279.374C1267.64,-277.923 1254.13,-275.462 1240.67,-272.474L1436.83,-192.333L1450.25,-209.973C1421.94,-221.54 1308.69,-267.807 1280.38,-279.374ZM1161.61,-61.493C1146.91,-52.62 1133.96,-42.33 1123.21,-30.922C1183.32,-6.363 1406.56,84.839 1483.89,116.435C1492.38,104.344 1498.6,91.316 1502.14,77.63C1431.56,48.793 1218.36,-38.306 1161.61,-61.493ZM1158.78,-249.305C1153.12,-247.447 1148.23,-245.811 1144.32,-244.515C1142.83,-244.02 1140.98,-243.456 1139.32,-242.774C1138.11,-242.278 1136.95,-241.762 1136.4,-241.068C1135.27,-239.652 1134.89,-237.339 1136.19,-235.632L1136.44,-235.308L1390.54,-131.496C1390.54,-131.496 1403.96,-149.136 1403.96,-149.136C1363.1,-165.831 1199.64,-232.61 1158.78,-249.305ZM1119.72,-27.104C1114.74,-21.453 1110.29,-15.548 1106.4,-9.422L1465.91,137.453C1471.44,132.057 1476.47,126.385 1480.95,120.473L1119.72,-27.104ZM1192.84,-77.099C1183.74,-73.381 1175.06,-69.191 1166.89,-64.576L1503.26,72.847C1504.77,65.682 1505.56,58.35 1505.56,50.889C1505.56,50.813 1505.56,50.737 1505.56,50.661C1441.4,24.452 1244.96,-55.806 1192.84,-77.099ZM1103.85,-5.223C1096.83,6.844 1092.01,19.713 1089.73,33.132C1145.13,55.768 1366.76,146.313 1422.17,168.949C1437.15,160.973 1450.57,151.603 1462.04,141.112C1402.34,116.723 1163.55,19.166 1103.85,-5.223ZM1232.46,-270.588C1207.86,-264.748 1183.99,-257.46 1165.92,-251.629L1407,-153.135L1433.79,-188.334C1400.23,-202.043 1266.01,-256.879 1232.46,-270.588ZM1089.01,38.079C1088.49,42.301 1088.23,46.574 1088.23,50.889C1088.23,54.317 1088.4,57.717 1088.72,61.087L1388.51,183.566C1398.29,180.175 1407.64,176.259 1416.49,171.87C1342.49,141.64 1143.59,60.377 1089.01,38.079ZM1453.3,-213.971L1469.78,-235.632C1471.08,-237.339 1470.71,-239.651 1469.57,-241.066C1469.02,-241.76 1467.86,-242.273 1466.64,-242.768C1464.97,-243.452 1463.11,-244.018 1461.61,-244.519C1434.62,-253.572 1355.87,-280.787 1302.99,-280.787C1299.08,-280.787 1295.02,-280.632 1290.84,-280.342L1453.3,-213.971ZM1166.84,297.135L1153.42,314.775C1191.56,330.359 1290.38,370.73 1317.77,381.921C1330.77,380.861 1344.81,378.574 1358.95,375.622L1166.84,297.135ZM1242.21,198.086C1240.9,199.808 1238.98,202.339 1238.98,202.339L1424.75,278.237L1399.22,244.68C1378.44,236.194 1339.77,220.393 1297.34,203.058C1297.19,203.058 1297.04,203.058 1296.89,203.058C1278,203.058 1259.67,201.33 1242.21,198.086ZM1285.07,198.047C1220.31,171.588 1150.1,142.905 1122.74,131.726C1157.95,169.618 1217.19,195.355 1285.07,198.047ZM1150.37,318.774L1136.19,337.411C1134.89,339.118 1135.27,341.43 1136.4,342.845C1136.95,343.539 1138.11,344.052 1139.33,344.547C1141,345.231 1142.87,345.796 1144.36,346.298C1171.36,355.351 1250.1,382.566 1302.99,382.566C1304.12,382.566 1305.26,382.553 1306.42,382.527L1150.37,318.774ZM1196.74,257.848L1169.88,293.137C1202.79,306.581 1334.42,360.357 1367.32,373.801C1391.74,368.286 1415.86,361.113 1434.78,355.099L1196.74,257.848ZM1213.2,236.21L1199.78,253.85L1441.96,352.792C1449.87,350.227 1456.58,347.974 1461.65,346.294C1463.14,345.799 1464.99,345.235 1466.65,344.553C1467.87,344.057 1469.02,343.541 1469.57,342.847C1469.93,342.398 1470.2,341.858 1470.37,341.276L1213.2,236.21ZM1235.93,206.337L1216.24,232.211L1467.99,335.063L1430.54,285.843L1235.93,206.337ZM1281.65,-96.113L1485.02,-13.03C1475.26,-27.376 1462.31,-40.435 1446.84,-51.752L1348.47,-91.942C1331.97,-94.92 1314.69,-96.502 1296.89,-96.502C1291.77,-96.502 1286.69,-96.371 1281.65,-96.113ZM1330.01,-99.483L1199.1,-152.967L1224.63,-119.41L1271.57,-100.233C1279.88,-100.924 1288.33,-101.279 1296.89,-101.279C1308.15,-101.279 1319.21,-100.665 1330.01,-99.483Z" style="fill:rgb(241,213,173);"/>
                </g>
                <g transform="matrix(1,0,0,1,-1042.99,0)">
                    <path d="M1357.96,205.612L1279.94,181.069C1278.5,180.617 1277.7,179.086 1278.16,177.652L1279.79,172.453C1280.24,171.018 1281.77,170.22 1283.21,170.671L1359.32,194.612C1358.76,198.245 1358.31,201.913 1357.96,205.612ZM1726.84,250.354L1801.66,273.689C1803.09,274.137 1803.89,275.666 1803.45,277.102L1801.83,282.305C1801.38,283.74 1799.85,284.542 1798.41,284.095L1724.92,261.174C1725.66,257.604 1726.3,253.996 1726.84,250.354ZM1727.06,197.414L1787.66,168.492C1789.02,167.844 1790.65,168.42 1791.3,169.778L1793.64,174.696C1794.29,176.053 1793.72,177.681 1792.36,178.329L1728.29,208.908C1728,205.043 1727.59,201.21 1727.06,197.414ZM1728.77,227.486L1786.98,227.343C1788.48,227.34 1789.7,228.558 1789.71,230.062L1789.72,235.512C1789.73,237.016 1788.51,238.24 1787,238.243L1728.2,238.387C1728.49,234.781 1728.68,231.147 1728.77,227.486ZM1359.86,254.91L1293.67,286.3C1292.32,286.944 1290.69,286.364 1290.05,285.005L1287.71,280.081C1287.07,278.722 1287.65,277.096 1289.01,276.451L1358.27,243.601C1358.69,247.406 1359.22,251.177 1359.86,254.91ZM1357.2,227.45L1294.51,227.45C1293,227.45 1291.78,226.229 1291.78,224.725L1291.78,219.275C1291.78,217.771 1293,216.55 1294.51,216.55L1357.27,216.55C1357.19,218.722 1357.15,220.903 1357.15,223.093C1357.15,224.549 1357.17,226.001 1357.2,227.45Z" style="fill:rgb(241,213,173);"/>
                </g>
            </g>
        </g>
    </g>
</svg>
