<?xml version="1.0" encoding="UTF-8" standalone="no"?>
<!DOCTYPE svg PUBLIC "-//W3C//DTD SVG 1.1//EN" "http://www.w3.org/Graphics/SVG/1.1/DTD/svg11.dtd">
<svg width="100%" height="100%" viewBox="0 0 1000 1000" version="1.1" xmlns="http://www.w3.org/2000/svg" xmlns:xlink="http://www.w3.org/1999/xlink" xml:space="preserve" xmlns:serif="http://www.serif.com/" style="fill-rule:evenodd;clip-rule:evenodd;stroke-linejoin:round;stroke-miterlimit:2;">
    <g transform="matrix(1,0,0,1,-4373,-3507)">
        <g id="select_session" transform="matrix(1,0,0,1,4373.91,3507.37)">
            <rect x="0" y="0" width="1000" height="1000" style="fill:none;"/>
            <clipPath id="_clip1">
                <rect x="0" y="0" width="1000" height="1000"/>
            </clipPath>
            <g clip-path="url(#_clip1)">
                <g transform="matrix(1,0,0,1,0,-59.9888)">
                    <g>
                        <g transform="matrix(1.37179,0,0,1.27902,-6137.69,-4512.38)">
                            <path d="M5203.2,3801.45C5203.2,3779.1 5186.28,3760.95 5165.44,3760.95L4511.99,3760.95C4491.15,3760.95 4474.23,3779.1 4474.23,3801.45C4474.23,3823.8 4491.15,3841.95 4511.99,3841.95L5165.44,3841.95C5186.28,3841.95 5203.2,3823.8 5203.2,3801.45Z" style="fill:rgb(0,62,155);"/>
                        </g>
                        <g transform="matrix(0.400172,0.400172,-0.904402,0.904402,2340.7,-5133.84)">
                            <path d="M5203.2,3801.45C5203.2,3779.1 5162.19,3760.95 5111.67,3760.95L4565.76,3760.95C4515.24,3760.95 4474.23,3779.1 4474.23,3801.45C4474.23,3823.8 4515.24,3841.95 4565.76,3841.95L5111.67,3841.95C5162.19,3841.95 5203.2,3823.8 5203.2,3801.45Z" style="fill:rgb(0,62,155);"/>
                        </g>
                        <g transform="matrix(0.400172,-0.400172,-0.904402,-0.904402,2340.7,5833.31)">
                            <path d="M5203.2,3801.45C5203.2,3779.1 5162.19,3760.95 5111.67,3760.95L4565.76,3760.95C4515.24,3760.95 4474.23,3779.1 4474.23,3801.45C4474.23,3823.8 4515.24,3841.95 4565.76,3841.95L5111.67,3841.95C5162.19,3841.95 5203.2,3823.8 5203.2,3801.45Z" style="fill:rgb(0,62,155);"/>
                        </g>
                    </g>
                    <g transform="matrix(-1,0,0,1,1000,420.502)">
                        <g transform="matrix(1.37179,0,0,1.27902,-6137.69,-4512.38)">
                            <path d="M5203.2,3801.45C5203.2,3779.1 5186.28,3760.95 5165.44,3760.95L4511.99,3760.95C4491.15,3760.95 4474.23,3779.1 4474.23,3801.45C4474.23,3823.8 4491.15,3841.95 4511.99,3841.95L5165.44,3841.95C5186.28,3841.95 5203.2,3823.8 5203.2,3801.45Z" style="fill:rgb(0,62,155);"/>
                        </g>
                        <g transform="matrix(0.400172,0.400172,-0.904402,0.904402,2340.7,-5133.84)">
                            <path d="M5203.2,3801.45C5203.2,3779.1 5162.19,3760.95 5111.67,3760.95L4565.76,3760.95C4515.24,3760.95 4474.23,3779.1 4474.23,3801.45C4474.23,3823.8 4515.24,3841.95 4565.76,3841.95L5111.67,3841.95C5162.19,3841.95 5203.2,3823.8 5203.2,3801.45Z" style="fill:rgb(0,62,155);"/>
                        </g>
                        <g transform="matrix(0.400172,-0.400172,-0.904402,-0.904402,2340.7,5833.31)">
                            <path d="M5203.2,3801.45C5203.2,3779.1 5162.19,3760.95 5111.67,3760.95L4565.76,3760.95C4515.24,3760.95 4474.23,3779.1 4474.23,3801.45C4474.23,3823.8 4515.24,3841.95 4565.76,3841.95L5111.67,3841.95C5162.19,3841.95 5203.2,3823.8 5203.2,3801.45Z" style="fill:rgb(0,62,155);"/>
                        </g>
                    </g>
                </g>
            </g>
        </g>
    </g>
</svg>
