<?xml version="1.0" encoding="UTF-8" standalone="no"?>
<!DOCTYPE svg PUBLIC "-//W3C//DTD SVG 1.1//EN" "http://www.w3.org/Graphics/SVG/1.1/DTD/svg11.dtd">
<svg width="100%" height="100%" viewBox="0 0 1000 1000" version="1.1" xmlns="http://www.w3.org/2000/svg" xmlns:xlink="http://www.w3.org/1999/xlink" xml:space="preserve" xmlns:serif="http://www.serif.com/" style="fill-rule:evenodd;clip-rule:evenodd;stroke-linejoin:round;stroke-miterlimit:2;">
    <g transform="matrix(1,0,0,1,-9,-4573)">
        <g id="session_namager" transform="matrix(1,0,0,1,9.55135,4573.94)">
            <rect x="0" y="0" width="1000" height="1000" style="fill:none;"/>
            <clipPath id="_clip1">
                <rect x="0" y="0" width="1000" height="1000"/>
            </clipPath>
            <g clip-path="url(#_clip1)">
                <g transform="matrix(1.37179,0,0,1.27902,-6137.69,-4572.37)">
                    <path d="M4678.45,3841.95L4511.99,3841.95C4491.15,3841.95 4474.23,3823.8 4474.23,3801.45C4474.23,3779.1 4491.15,3760.95 4511.99,3760.95L4681.7,3760.95C4677.82,3776.3 4675.75,3792.48 4675.75,3809.19C4675.75,3820.38 4676.68,3831.33 4678.45,3841.95ZM4792.65,3760.95L4884.78,3760.95L4884.78,3801.33L4792.65,3801.33C4792.65,3801.33 4792.65,3783.65 4792.65,3760.95ZM4995.73,3760.95L5074.28,3760.95L4979.5,3659.29C4964.76,3643.48 4964.76,3617.82 4979.5,3602.01C4994.23,3586.21 5018.16,3586.21 5032.9,3602.01L5191.51,3772.13C5191.72,3772.35 5191.94,3772.58 5192.15,3772.8C5197.79,3778.85 5201.27,3786.34 5202.59,3794.16C5202.9,3795.97 5203.09,3797.82 5203.17,3799.7C5203.19,3800.28 5203.2,3800.86 5203.2,3801.45C5203.2,3802.03 5203.19,3802.61 5203.17,3803.19C5203.09,3805.08 5202.9,3806.92 5202.59,3808.73C5201.27,3816.56 5197.79,3824.05 5192.15,3830.09C5191.94,3830.32 5191.72,3830.54 5191.51,3830.76L5032.9,4000.88C5018.16,4016.68 4994.23,4016.68 4979.5,4000.88C4964.76,3985.08 4964.76,3959.41 4979.5,3943.61L5074.28,3841.95L4998.98,3841.95C5000.75,3831.33 5001.68,3820.38 5001.68,3809.19C5001.68,3792.48 4999.61,3776.3 4995.73,3760.95ZM4916.28,4089.72L5165.44,4089.72C5186.28,4089.72 5203.2,4107.86 5203.2,4130.22C5203.2,4152.57 5186.28,4170.72 5165.44,4170.72L4922.45,4170.72L4916.28,4089.72ZM4754.98,4170.72L4603.15,4170.72L4697.93,4272.38C4712.67,4288.18 4712.67,4313.84 4697.93,4329.65C4683.2,4345.45 4659.27,4345.45 4644.53,4329.65L4485.92,4159.53C4485.7,4159.31 4485.49,4159.09 4485.28,4158.86C4479.64,4152.82 4476.16,4145.33 4474.84,4137.5C4474.53,4135.69 4474.34,4133.85 4474.26,4131.96C4474.24,4131.38 4474.23,4130.8 4474.23,4130.22C4474.23,4129.63 4474.24,4129.05 4474.26,4128.47C4474.34,4126.59 4474.53,4124.74 4474.84,4122.93C4476.16,4115.11 4479.64,4107.62 4485.28,4101.57C4485.49,4101.34 4485.7,4101.12 4485.92,4100.9L4644.53,3930.78C4659.27,3914.98 4683.2,3914.98 4697.93,3930.78C4712.67,3946.59 4712.67,3972.25 4697.93,3988.06L4603.15,4089.72L4761.15,4089.72L4754.98,4170.72ZM4716.72,3760.95L4759.16,3760.95C4759.16,3792.41 4759.16,3819.28 4759.16,3819.28C4759.16,3829.2 4766.65,3837.24 4775.9,3837.24L4901.53,3837.24C4910.78,3837.24 4918.27,3829.2 4918.27,3819.28L4918.27,3760.95L4960.71,3760.95C4965.56,3776.04 4968.19,3792.28 4968.19,3809.19C4968.19,3820.46 4967.02,3831.42 4964.81,3841.95L4712.62,3841.95C4710.41,3831.42 4709.24,3820.46 4709.24,3809.19C4709.24,3792.28 4711.87,3776.04 4716.72,3760.95ZM4888.84,4170.72L4788.59,4170.72L4794.75,4089.72L4882.68,4089.72L4888.84,4170.72Z" style="fill:rgb(0,62,155);"/>
                </g>
                <g transform="matrix(0.71875,0,0,0.74125,152.485,-3423.57)">
                    <path d="M386.246,5284.54C280.11,5245.02 204.423,5142.73 204.423,5022.9C204.423,4911.78 269.515,4815.73 363.618,4770.85L363.618,5040.31L603.381,5040.31L603.381,4770.85C697.484,4815.73 762.576,4911.78 762.576,5022.9C762.576,5142.73 686.889,5245.02 580.753,5284.54L627.488,5839.68C628.181,5847.92 625.289,5856.06 619.511,5862.14C613.733,5868.22 605.597,5871.68 597.072,5871.68L369.928,5871.68C361.402,5871.68 353.266,5868.22 347.488,5862.14C341.71,5856.06 338.818,5847.92 339.511,5839.68L386.246,5284.54ZM483.5,5717.39C450.019,5717.39 422.838,5743.74 422.838,5776.21C422.838,5808.67 450.019,5835.03 483.5,5835.03C516.98,5835.03 544.161,5808.67 544.161,5776.21C544.161,5743.74 516.98,5717.39 483.5,5717.39Z" style="fill:rgb(0,62,155);"/>
                </g>
            </g>
        </g>
    </g>
</svg>
